<?xml version="1.0" standalone="no"?>
<!DOCTYPE svg PUBLIC "-//W3C//DTD SVG 20010904//EN"
 "http://www.w3.org/TR/2001/REC-SVG-20010904/DTD/svg10.dtd">
<svg version="1.0" xmlns="http://www.w3.org/2000/svg"
 width="200.000000pt" height="70.000000pt" viewBox="0 0 200.000000 70.000000"
 preserveAspectRatio="xMidYMid meet">

<g transform="translate(0.000000,70.000000) scale(0.100000,-0.100000)"
fill="#000000" stroke="none">
<path d="M0 350 l0 -350 1000 0 1000 0 0 350 0 350 -1000 0 -1000 0 0 -350z
m735 -34 c6 -4 1 -4 -10 2 -11 6 -31 23 -45 39 l-25 28 35 -30 c19 -16 40 -34
45 -39z m605 55 c0 -5 -15 -20 -32 -32 l-33 -22 29 31 c32 34 36 37 36 23z
m-885 -76 c1 -11 4 -26 8 -33 6 -8 1 -12 -17 -12 -14 0 -26 5 -26 10 0 6 -5
10 -11 10 -5 0 -7 -4 -4 -10 4 -6 -5 -10 -19 -10 -23 0 -26 4 -26 36 l0 35 48
-3 c39 -2 47 -6 47 -23z m85 -10 c0 -30 -3 -35 -23 -35 -20 0 -23 4 -19 35 3
26 9 35 23 35 15 0 19 -7 19 -35z m125 24 c11 -17 -5 -24 -26 -11 -11 7 -24
10 -29 7 -16 -10 -11 -45 6 -45 8 0 12 5 9 10 -4 6 5 10 19 10 16 0 26 -6 26
-15 0 -12 -13 -15 -55 -15 -54 0 -55 0 -55 29 0 16 6 32 13 34 23 10 86 7 92
-4z m190 0 c11 -18 -5 -24 -26 -10 -23 14 -31 10 -36 -20 -3 -18 1 -19 32 -13
23 4 35 2 35 -5 0 -7 -21 -11 -55 -11 -54 0 -55 0 -55 29 0 16 6 32 13 34 23
10 86 7 92 -4z m131 0 c3 -6 1 -16 -5 -22 -7 -7 -7 -14 0 -24 9 -10 7 -13 -10
-13 -11 0 -21 5 -21 10 0 6 -4 10 -10 10 -5 0 -10 -7 -10 -15 0 -16 -9 -19
-34 -9 -10 4 -16 18 -16 40 l0 34 49 0 c28 0 53 -5 57 -11z m134 -5 c0 -13 -6
-15 -27 -10 -21 5 -24 4 -13 -4 10 -6 11 -10 3 -10 -7 0 -13 -4 -13 -10 0 -5
7 -7 15 -4 8 4 23 3 33 -1 15 -6 15 -8 -5 -15 -12 -5 -38 -6 -57 -3 -33 5 -36
8 -36 39 l0 34 50 0 c39 0 50 -3 50 -16z m134 -16 c9 -17 16 -32 16 -33 0 -1
-29 -2 -64 -3 l-64 0 21 33 c30 46 69 48 91 3z m166 21 c0 -6 -9 -9 -20 -6
-17 4 -20 0 -20 -24 0 -24 -4 -29 -24 -29 -19 0 -22 4 -18 25 3 20 0 25 -17
25 -11 0 -21 5 -21 10 0 6 27 10 60 10 38 0 60 -4 60 -11z m70 -24 c0 -30 -3
-35 -23 -35 -20 0 -23 4 -19 35 3 26 9 35 23 35 15 0 19 -7 19 -35z m80 13 l9
-23 7 23 c4 15 14 22 31 22 14 0 23 -3 21 -7 -29 -60 -32 -63 -63 -63 -23 0
-34 5 -38 18 -2 9 -8 25 -12 35 -5 13 -2 17 14 17 13 0 25 -9 31 -22z"/>
<path d="M400 300 c0 -5 5 -10 11 -10 5 0 7 5 4 10 -3 6 -8 10 -11 10 -2 0 -4
-4 -4 -10z"/>
<path d="M931 294 c0 -11 3 -14 6 -6 3 7 2 16 -1 19 -3 4 -6 -2 -5 -13z"/>
</g>
</svg>
